<?xml version="1.0" encoding="UTF-8" standalone="no"?>
<!DOCTYPE svg PUBLIC "-//W3C//DTD SVG 1.1//EN" "http://www.w3.org/Graphics/SVG/1.1/DTD/svg11.dtd">
<svg width="100%" height="100%" viewBox="0 0 1115 188" version="1.1" xmlns="http://www.w3.org/2000/svg" xmlns:xlink="http://www.w3.org/1999/xlink" xml:space="preserve" xmlns:serif="http://www.serif.com/" style="fill-rule:evenodd;clip-rule:evenodd;stroke-linejoin:round;stroke-miterlimit:2;">
    <g id="Artboard1" transform="matrix(0.619066,0,0,0.139241,0,0)">
        <rect x="0" y="0" width="1800" height="1350" style="fill:none;"/>
        <g transform="matrix(1.86711,0,0,9.46783,-289.942,-4758.76)">
            <g transform="matrix(125,0,0,125,169.168,613.054)">
                <path d="M0.561,0L0.075,0L0.075,-0.727L0.258,-0.727L0.258,-0.139L0.561,-0.139L0.561,0Z" style="fill:white;fill-rule:nonzero;"/>
            </g>
            <g transform="matrix(125,0,0,125,240.702,613.054)">
                <path d="M0.346,0.015C0.243,0.015 0.163,-0.01 0.108,-0.06C0.053,-0.109 0.025,-0.18 0.025,-0.271C0.025,-0.361 0.051,-0.432 0.103,-0.485C0.154,-0.539 0.226,-0.565 0.318,-0.565C0.402,-0.565 0.465,-0.543 0.508,-0.498C0.55,-0.452 0.571,-0.388 0.571,-0.303L0.571,-0.242L0.197,-0.242C0.198,-0.216 0.204,-0.195 0.213,-0.178C0.222,-0.161 0.234,-0.147 0.249,-0.137C0.264,-0.127 0.281,-0.12 0.3,-0.115C0.32,-0.111 0.341,-0.109 0.364,-0.109C0.384,-0.109 0.404,-0.111 0.423,-0.115C0.442,-0.12 0.46,-0.126 0.476,-0.133C0.49,-0.139 0.503,-0.146 0.514,-0.153C0.526,-0.16 0.536,-0.166 0.543,-0.172L0.562,-0.172L0.562,-0.031C0.548,-0.025 0.535,-0.02 0.523,-0.015C0.512,-0.011 0.496,-0.006 0.476,-0.001C0.457,0.004 0.438,0.008 0.418,0.01C0.399,0.013 0.375,0.015 0.346,0.015ZM0.403,-0.345C0.402,-0.381 0.393,-0.408 0.378,-0.427C0.362,-0.446 0.338,-0.456 0.305,-0.456C0.272,-0.456 0.246,-0.446 0.227,-0.426C0.209,-0.406 0.198,-0.379 0.196,-0.345L0.403,-0.345Z" style="fill:white;fill-rule:nonzero;"/>
            </g>
            <g transform="matrix(125,0,0,125,314.92,613.054)">
                <path d="M0.368,-0.143L0.368,-0.257C0.339,-0.254 0.315,-0.252 0.297,-0.25C0.279,-0.248 0.262,-0.243 0.245,-0.237C0.23,-0.232 0.218,-0.224 0.21,-0.214C0.201,-0.203 0.197,-0.189 0.197,-0.171C0.197,-0.146 0.204,-0.128 0.218,-0.118C0.232,-0.109 0.252,-0.104 0.279,-0.104C0.294,-0.104 0.31,-0.107 0.325,-0.114C0.341,-0.121 0.355,-0.131 0.368,-0.143ZM0.368,-0.058C0.356,-0.048 0.345,-0.04 0.336,-0.032C0.327,-0.024 0.314,-0.016 0.299,-0.008C0.284,-0.001 0.269,0.005 0.254,0.009C0.24,0.013 0.219,0.015 0.193,0.015C0.145,0.015 0.105,-0.002 0.073,-0.034C0.04,-0.067 0.024,-0.108 0.024,-0.157C0.024,-0.198 0.033,-0.231 0.049,-0.256C0.065,-0.281 0.089,-0.301 0.119,-0.315C0.15,-0.33 0.187,-0.341 0.23,-0.347C0.273,-0.353 0.319,-0.357 0.369,-0.36L0.369,-0.363C0.369,-0.394 0.358,-0.414 0.335,-0.426C0.313,-0.438 0.279,-0.443 0.235,-0.443C0.215,-0.443 0.191,-0.44 0.164,-0.432C0.137,-0.425 0.111,-0.416 0.085,-0.404L0.07,-0.404L0.07,-0.537C0.087,-0.542 0.115,-0.547 0.152,-0.554C0.19,-0.561 0.228,-0.564 0.267,-0.564C0.361,-0.564 0.43,-0.548 0.473,-0.517C0.516,-0.485 0.538,-0.438 0.538,-0.373L0.538,0L0.368,0L0.368,-0.058Z" style="fill:white;fill-rule:nonzero;"/>
            </g>
            <g transform="matrix(125,0,0,125,389.75,613.054)">
                <path d="M0.393,-0.173L0.393,-0.421C0.385,-0.425 0.374,-0.429 0.362,-0.431C0.349,-0.434 0.337,-0.435 0.325,-0.435C0.284,-0.435 0.253,-0.422 0.232,-0.395C0.212,-0.369 0.201,-0.332 0.201,-0.284C0.201,-0.26 0.203,-0.24 0.206,-0.224C0.209,-0.207 0.215,-0.193 0.223,-0.18C0.231,-0.168 0.242,-0.158 0.255,-0.152C0.268,-0.146 0.285,-0.143 0.306,-0.143C0.321,-0.143 0.336,-0.145 0.351,-0.15C0.366,-0.156 0.38,-0.163 0.393,-0.173ZM0.564,-0.063C0.564,-0.012 0.557,0.031 0.542,0.066C0.527,0.102 0.507,0.13 0.482,0.149C0.457,0.17 0.426,0.184 0.391,0.193C0.355,0.202 0.316,0.207 0.272,0.207C0.236,0.207 0.201,0.204 0.169,0.199C0.136,0.195 0.108,0.189 0.083,0.183L0.083,0.046L0.104,0.046C0.112,0.049 0.122,0.053 0.134,0.057C0.145,0.061 0.157,0.064 0.168,0.067C0.182,0.071 0.196,0.074 0.209,0.076C0.223,0.078 0.236,0.08 0.25,0.08C0.279,0.08 0.304,0.077 0.323,0.071C0.342,0.065 0.357,0.056 0.367,0.045C0.376,0.034 0.383,0.02 0.387,0.005C0.391,-0.011 0.393,-0.03 0.393,-0.054L0.393,-0.064C0.374,-0.047 0.352,-0.033 0.326,-0.023C0.301,-0.013 0.275,-0.008 0.249,-0.008C0.178,-0.008 0.123,-0.031 0.084,-0.077C0.046,-0.123 0.026,-0.194 0.026,-0.288C0.026,-0.331 0.032,-0.37 0.044,-0.404C0.056,-0.438 0.073,-0.467 0.094,-0.491C0.114,-0.514 0.138,-0.532 0.167,-0.545C0.196,-0.557 0.225,-0.563 0.256,-0.563C0.284,-0.563 0.309,-0.56 0.332,-0.553C0.354,-0.546 0.374,-0.536 0.392,-0.524L0.398,-0.548L0.564,-0.548L0.564,-0.063Z" style="fill:white;fill-rule:nonzero;"/>
            </g>
            <g transform="matrix(125,0,0,125,468.424,613.054)">
                <path d="M0.575,0L0.404,0L0.404,-0.061C0.374,-0.036 0.347,-0.017 0.322,-0.004C0.298,0.009 0.268,0.015 0.234,0.015C0.18,0.015 0.137,-0.002 0.107,-0.036C0.076,-0.071 0.061,-0.122 0.061,-0.191L0.061,-0.548L0.233,-0.548L0.233,-0.276C0.233,-0.248 0.234,-0.225 0.235,-0.207C0.237,-0.189 0.24,-0.174 0.246,-0.162C0.251,-0.15 0.259,-0.142 0.27,-0.136C0.281,-0.13 0.296,-0.127 0.315,-0.127C0.327,-0.127 0.342,-0.13 0.358,-0.136C0.375,-0.142 0.39,-0.15 0.404,-0.16L0.404,-0.548L0.575,-0.548L0.575,0Z" style="fill:white;fill-rule:nonzero;"/>
            </g>
            <g transform="matrix(125,0,0,125,548.441,613.054)">
                <path d="M0.346,0.015C0.243,0.015 0.163,-0.01 0.108,-0.06C0.053,-0.109 0.025,-0.18 0.025,-0.271C0.025,-0.361 0.051,-0.432 0.103,-0.485C0.154,-0.539 0.226,-0.565 0.318,-0.565C0.402,-0.565 0.465,-0.543 0.508,-0.498C0.55,-0.452 0.571,-0.388 0.571,-0.303L0.571,-0.242L0.197,-0.242C0.198,-0.216 0.204,-0.195 0.213,-0.178C0.222,-0.161 0.234,-0.147 0.249,-0.137C0.264,-0.127 0.281,-0.12 0.3,-0.115C0.32,-0.111 0.341,-0.109 0.364,-0.109C0.384,-0.109 0.404,-0.111 0.423,-0.115C0.442,-0.12 0.46,-0.126 0.476,-0.133C0.49,-0.139 0.503,-0.146 0.514,-0.153C0.526,-0.16 0.536,-0.166 0.543,-0.172L0.562,-0.172L0.562,-0.031C0.548,-0.025 0.535,-0.02 0.523,-0.015C0.512,-0.011 0.496,-0.006 0.476,-0.001C0.457,0.004 0.438,0.008 0.418,0.01C0.399,0.013 0.375,0.015 0.346,0.015ZM0.403,-0.345C0.402,-0.381 0.393,-0.408 0.378,-0.427C0.362,-0.446 0.338,-0.456 0.305,-0.456C0.272,-0.456 0.246,-0.446 0.227,-0.426C0.209,-0.406 0.198,-0.379 0.196,-0.345L0.403,-0.345Z" style="fill:white;fill-rule:nonzero;"/>
            </g>
            <g transform="matrix(125,0,0,125,659.281,613.054)">
                <rect x="-0.008" y="0.07" width="0.652" height="0.098" style="fill:white;fill-rule:nonzero;"/>
            </g>
            <g transform="matrix(125,0,0,125,775.492,613.054)">
                <path d="M0.3,0.013C0.244,0.013 0.195,0.008 0.153,-0.003C0.111,-0.014 0.072,-0.027 0.036,-0.043L0.036,-0.216L0.052,-0.216C0.089,-0.185 0.129,-0.161 0.173,-0.145C0.217,-0.128 0.259,-0.12 0.301,-0.12C0.311,-0.12 0.325,-0.121 0.342,-0.123C0.359,-0.125 0.373,-0.129 0.383,-0.134C0.396,-0.139 0.407,-0.147 0.416,-0.157C0.424,-0.167 0.429,-0.18 0.429,-0.196C0.429,-0.215 0.422,-0.229 0.407,-0.241C0.393,-0.252 0.376,-0.26 0.356,-0.266C0.331,-0.272 0.305,-0.278 0.277,-0.284C0.248,-0.29 0.222,-0.297 0.198,-0.306C0.141,-0.326 0.101,-0.352 0.077,-0.386C0.052,-0.419 0.04,-0.461 0.04,-0.512C0.04,-0.58 0.069,-0.635 0.126,-0.677C0.184,-0.719 0.256,-0.74 0.342,-0.74C0.386,-0.74 0.429,-0.736 0.471,-0.727C0.514,-0.718 0.553,-0.706 0.586,-0.691L0.586,-0.525L0.57,-0.525C0.543,-0.549 0.51,-0.568 0.471,-0.584C0.433,-0.6 0.393,-0.608 0.352,-0.608C0.336,-0.608 0.321,-0.607 0.309,-0.604C0.296,-0.602 0.283,-0.598 0.269,-0.591C0.257,-0.586 0.247,-0.578 0.239,-0.568C0.231,-0.558 0.227,-0.546 0.227,-0.534C0.227,-0.515 0.233,-0.5 0.246,-0.49C0.26,-0.479 0.285,-0.469 0.323,-0.46C0.347,-0.454 0.371,-0.449 0.393,-0.444C0.416,-0.439 0.44,-0.431 0.466,-0.422C0.516,-0.404 0.554,-0.38 0.578,-0.349C0.603,-0.318 0.615,-0.278 0.615,-0.227C0.615,-0.155 0.587,-0.097 0.53,-0.053C0.473,-0.009 0.396,0.013 0.3,0.013Z" style="fill:white;fill-rule:nonzero;"/>
            </g>
            <g transform="matrix(125,0,0,125,854.654,613.054)">
                <path d="M0.275,0.011C0.206,0.011 0.155,-0.004 0.123,-0.032C0.092,-0.061 0.076,-0.108 0.076,-0.173L0.076,-0.429L0.01,-0.429L0.01,-0.548L0.076,-0.548L0.076,-0.705L0.247,-0.705L0.247,-0.548L0.411,-0.548L0.411,-0.429L0.247,-0.429L0.247,-0.235C0.247,-0.216 0.247,-0.199 0.247,-0.185C0.247,-0.17 0.25,-0.157 0.255,-0.146C0.259,-0.135 0.267,-0.126 0.279,-0.119C0.291,-0.112 0.307,-0.109 0.33,-0.109C0.339,-0.109 0.351,-0.111 0.365,-0.115C0.38,-0.119 0.391,-0.122 0.396,-0.125L0.411,-0.125L0.411,-0.005C0.393,0 0.373,0.004 0.352,0.007C0.331,0.009 0.306,0.011 0.275,0.011Z" style="fill:white;fill-rule:nonzero;"/>
            </g>
            <g transform="matrix(125,0,0,125,906.595,613.054)">
                <path d="M0.368,-0.143L0.368,-0.257C0.339,-0.254 0.315,-0.252 0.297,-0.25C0.279,-0.248 0.262,-0.243 0.245,-0.237C0.23,-0.232 0.218,-0.224 0.21,-0.214C0.201,-0.203 0.197,-0.189 0.197,-0.171C0.197,-0.146 0.204,-0.128 0.218,-0.118C0.232,-0.109 0.252,-0.104 0.279,-0.104C0.294,-0.104 0.31,-0.107 0.325,-0.114C0.341,-0.121 0.355,-0.131 0.368,-0.143ZM0.368,-0.058C0.356,-0.048 0.345,-0.04 0.336,-0.032C0.327,-0.024 0.314,-0.016 0.299,-0.008C0.284,-0.001 0.269,0.005 0.254,0.009C0.24,0.013 0.219,0.015 0.193,0.015C0.145,0.015 0.105,-0.002 0.073,-0.034C0.04,-0.067 0.024,-0.108 0.024,-0.157C0.024,-0.198 0.033,-0.231 0.049,-0.256C0.065,-0.281 0.089,-0.301 0.119,-0.315C0.15,-0.33 0.187,-0.341 0.23,-0.347C0.273,-0.353 0.319,-0.357 0.369,-0.36L0.369,-0.363C0.369,-0.394 0.358,-0.414 0.335,-0.426C0.313,-0.438 0.279,-0.443 0.235,-0.443C0.215,-0.443 0.191,-0.44 0.164,-0.432C0.137,-0.425 0.111,-0.416 0.085,-0.404L0.07,-0.404L0.07,-0.537C0.087,-0.542 0.115,-0.547 0.152,-0.554C0.19,-0.561 0.228,-0.564 0.267,-0.564C0.361,-0.564 0.43,-0.548 0.473,-0.517C0.516,-0.485 0.538,-0.438 0.538,-0.373L0.538,0L0.368,0L0.368,-0.058Z" style="fill:white;fill-rule:nonzero;"/>
            </g>
            <g transform="matrix(125,0,0,125,981.424,613.054)">
                <path d="M0.275,0.011C0.206,0.011 0.155,-0.004 0.123,-0.032C0.092,-0.061 0.076,-0.108 0.076,-0.173L0.076,-0.429L0.01,-0.429L0.01,-0.548L0.076,-0.548L0.076,-0.705L0.247,-0.705L0.247,-0.548L0.411,-0.548L0.411,-0.429L0.247,-0.429L0.247,-0.235C0.247,-0.216 0.247,-0.199 0.247,-0.185C0.247,-0.17 0.25,-0.157 0.255,-0.146C0.259,-0.135 0.267,-0.126 0.279,-0.119C0.291,-0.112 0.307,-0.109 0.33,-0.109C0.339,-0.109 0.351,-0.111 0.365,-0.115C0.38,-0.119 0.391,-0.122 0.396,-0.125L0.411,-0.125L0.411,-0.005C0.393,0 0.373,0.004 0.352,0.007C0.331,0.009 0.306,0.011 0.275,0.011Z" style="fill:white;fill-rule:nonzero;"/>
            </g>
            <g transform="matrix(125,0,0,125,1033.37,613.054)">
                <path d="M0.232,0.015C0.192,0.015 0.154,0.011 0.118,0.002C0.082,-0.007 0.052,-0.017 0.029,-0.029L0.029,-0.173L0.043,-0.173C0.051,-0.167 0.06,-0.16 0.071,-0.153C0.081,-0.145 0.096,-0.138 0.114,-0.129C0.13,-0.122 0.148,-0.115 0.168,-0.11C0.188,-0.105 0.21,-0.102 0.233,-0.102C0.257,-0.102 0.279,-0.106 0.297,-0.113C0.316,-0.121 0.325,-0.133 0.325,-0.149C0.325,-0.162 0.32,-0.171 0.312,-0.178C0.304,-0.184 0.287,-0.19 0.263,-0.196C0.25,-0.2 0.233,-0.203 0.213,-0.207C0.194,-0.211 0.176,-0.215 0.161,-0.22C0.118,-0.233 0.085,-0.253 0.064,-0.279C0.042,-0.305 0.031,-0.34 0.031,-0.382C0.031,-0.407 0.037,-0.43 0.048,-0.451C0.059,-0.473 0.076,-0.492 0.098,-0.509C0.119,-0.526 0.146,-0.539 0.178,-0.549C0.211,-0.559 0.247,-0.563 0.287,-0.563C0.326,-0.563 0.361,-0.56 0.393,-0.552C0.425,-0.544 0.452,-0.535 0.475,-0.524L0.475,-0.386L0.461,-0.386C0.455,-0.39 0.446,-0.396 0.433,-0.404C0.42,-0.412 0.408,-0.418 0.396,-0.424C0.382,-0.43 0.366,-0.436 0.348,-0.44C0.33,-0.444 0.312,-0.446 0.293,-0.446C0.269,-0.446 0.248,-0.442 0.231,-0.434C0.214,-0.425 0.205,-0.414 0.205,-0.4C0.205,-0.388 0.209,-0.378 0.218,-0.371C0.226,-0.363 0.245,-0.356 0.273,-0.35C0.288,-0.346 0.304,-0.343 0.323,-0.339C0.343,-0.336 0.361,-0.331 0.378,-0.325C0.418,-0.313 0.448,-0.294 0.468,-0.269C0.488,-0.245 0.499,-0.212 0.499,-0.171C0.499,-0.146 0.493,-0.121 0.48,-0.098C0.468,-0.075 0.451,-0.055 0.429,-0.039C0.406,-0.022 0.378,-0.008 0.346,0.001C0.315,0.01 0.277,0.015 0.232,0.015Z" style="fill:white;fill-rule:nonzero;"/>
            </g>
        </g>
    </g>
</svg>
